<?xml version="1.0" encoding="UTF-8" standalone="no"?>
<!-- Created with Inkscape (http://www.inkscape.org/) -->

<svg
   width="78.110001mm"
   height="78.110001mm"
   viewBox="0 0 78.110001 78.110001"
   version="1.1"
   id="svg584"
   inkscape:version="1.1.2 (0a00cf5339, 2022-02-04)"
   sodipodi:docname="ball-only-mini.svg"
   xmlns:inkscape="http://www.inkscape.org/namespaces/inkscape"
   xmlns:sodipodi="http://sodipodi.sourceforge.net/DTD/sodipodi-0.dtd"
   xmlns="http://www.w3.org/2000/svg"
   xmlns:svg="http://www.w3.org/2000/svg">
  <sodipodi:namedview
     id="namedview586"
     pagecolor="#ffffff"
     bordercolor="#666666"
     borderopacity="1.0"
     inkscape:pageshadow="2"
     inkscape:pageopacity="0.0"
     inkscape:pagecheckerboard="0"
     inkscape:document-units="mm"
     showgrid="false"
     inkscape:zoom="0.74386223"
     inkscape:cx="265.50615"
     inkscape:cy="211.06059"
     inkscape:window-width="1920"
     inkscape:window-height="1019"
     inkscape:window-x="0"
     inkscape:window-y="0"
     inkscape:window-maximized="1"
     inkscape:current-layer="layer1" />
  <defs
     id="defs581" />
  <g
     inkscape:label="Layer 1"
     inkscape:groupmode="layer"
     id="layer1"
     transform="translate(-34.928234,-92.905479)">
    <path
       fill="#006031"
       stroke="none"
       d="m 77.958234,126.78548 c 6.69,-11.82 11.6,-20.37 11.6,-20.37 1.97,-2.58 4.22,-4.31 6.76,-5.19 0.43,-0.14 0.87,-0.26 1.3,-0.36 -6.56,-5.000001 -14.75,-7.960001 -23.63,-7.960001 -21.58,0 -39.06,17.480001 -39.06,39.050001 0,7.74 2.25,14.95 6.12,21.01 0.03,-0.04 0.05,-0.08 0.07,-0.12 8.17,-14.53 14.73,-25.94 14.73,-25.94 1.88,-2.48 4.05,-4.14 6.49,-4.98 4.34,-1.49 8.99,-0.11 12.7,2.32 1.13,0.75 2.11,1.59 2.92,2.54 z"
       id="path60"
       style="stroke-width:0.01" />
    <g
       class="com.sun.star.drawing.ClosedBezierShape"
       id="g70"
       transform="matrix(0.01,0,0,0.01,-31.021766,-16.544521)">
      <g
         id="id5">
        <rect
           class="BoundingBox"
           stroke="none"
           fill="none"
           x="7755"
           y="14045"
           width="6651"
           height="4711"
           id="rect65" />
        <path
           fill="#7f922a"
           stroke="none"
           d="m 14322,14045 c -591,512 -1749,366 -2452,210 l -554,1096 c -80,160 -135,270 -203,340 -399,878 -1809,713 -2607,535 l -532,1055 c -86,171 -142,283 -219,347 706,697 1675,1127 2746,1127 2156,0 3904,-1748 3904,-3905 0,-276 -28,-545 -83,-805 z"
           id="path67" />
      </g>
    </g>
    <g
       class="com.sun.star.drawing.ClosedBezierShape"
       id="g77"
       transform="matrix(0.01,0,0,0.01,-31.021766,-16.544521)">
      <g
         id="id6">
        <rect
           class="BoundingBox"
           stroke="none"
           fill="none"
           x="9029"
           y="14820"
           width="1272"
           height="630"
           id="rect72" />
        <path
           fill="#006031"
           stroke="none"
           d="m 10038,14928 c -358,-167 -675,-172 -891,214 l -118,218 c 393,114 783,121 1072,6 297,-119 249,-293 -63,-438 z"
           id="path74" />
      </g>
    </g>
    <g
       class="com.sun.star.drawing.ClosedBezierShape"
       id="g84"
       transform="matrix(0.01,0,0,0.01,-31.021766,-16.544521)">
      <g
         id="id7">
        <rect
           class="BoundingBox"
           stroke="none"
           fill="none"
           x="12413"
           y="12790"
           width="1324"
           height="656"
           id="rect79" />
        <path
           fill="#006031"
           stroke="none"
           d="m 12414,13351 c 409,119 815,126 1115,5 309,-123 259,-303 -65,-454 -373,-174 -701,-179 -927,223 z"
           id="path81" />
      </g>
    </g>
  </g>
</svg>
